<?xml version="1.0" encoding="utf-8"?>
<!-- Generator: Adobe Illustrator 16.0.0, SVG Export Plug-In . SVG Version: 6.00 Build 0)  -->
<!DOCTYPE svg PUBLIC "-//W3C//DTD SVG 1.1//EN" "http://www.w3.org/Graphics/SVG/1.1/DTD/svg11.dtd">
<svg version="1.1" id="Layer_1" xmlns="http://www.w3.org/2000/svg" xmlns:xlink="http://www.w3.org/1999/xlink" x="0px" y="0px"
	 width="101.636px" height="63.981px" viewBox="14.28 138.88 101.636 63.981" enable-background="new 14.28 138.88 101.636 63.981"
	 xml:space="preserve">
<rect x="13.035" y="138" fill="#00A388" width="103.965" height="66.074"/>
<path fill="#3E606F" d="M75.719,145.75H37.68c-4.225,0-7.68,3.456-7.68,7.681v19.199c0,4.225,3.455,7.68,7.68,7.68h1.92v11.137
	l17.855-11.137h18.264c4.223,0,7.68-3.455,7.68-7.68v-19.199C83.398,149.206,79.941,145.75,75.719,145.75z M79.559,172.63
	c0,2.112-1.729,3.84-3.84,3.84H56.303l-12.863,8.064v-8.064h-5.76c-2.111,0-3.84-1.728-3.84-3.84v-19.199
	c0-2.112,1.729-3.84,3.84-3.84h38.039c2.111,0,3.84,1.728,3.84,3.84V172.63z"/>
<rect x="29.5" y="143.333" fill="#00A388" width="39.25" height="49.001"/>
<polygon fill="#E7382D" points="190.917,27.833 184.417,31.583 183.917,53.417 186.917,58.917 191.833,59.75 193,63.167 
	193.417,69.583 233.583,47.167 233.583,35.667 230.5,29.083 "/>
<path fill="#E7382D" d="M60,26.88H21.96c-4.225,0-7.68,3.456-7.68,7.681V53.76c0,4.225,3.455,7.68,7.68,7.68h1.92v11.137
	l17.856-11.137H60c4.223,0,7.68-3.455,7.68-7.68V34.561C67.68,30.336,64.223,26.88,60,26.88z M63.84,53.76
	c0,2.112-1.729,3.84-3.84,3.84H40.584l-12.863,8.064V57.6H21.96c-2.111,0-3.84-1.728-3.84-3.84V34.561c0-2.112,1.729-3.84,3.84-3.84
	H60c2.111,0,3.84,1.728,3.84,3.84V53.76z"/>
<rect x="59.242" y="44.1" fill="#FFFFFF" width="16.875" height="3.101"/>
<rect x="21.5" y="33.25" fill="none" width="44.75" height="11.5"/>
<text transform="matrix(1 0 0 1 21.5 43)" fill="#E7382D" font-family="'Graphik-Black'" font-size="13">RANT</text>
<rect x="34.745" y="57" fill="#FFFFFF" width="2.5" height="16.875"/>
<rect x="22.5" y="45.75" fill="none" width="11.75" height="11.5"/>
<text transform="matrix(1 0 0 1 22.5 51.7495)" fill="#E7382D" font-family="'Graphik-Black'" font-size="8">TO</text>
<polygon fill="#FCFCFC" points="45.175,47.5 39.479,51.266 39.479,70.846 39.479,76.368 42.327,78.376 51.396,78.376 72.055,79.882 
	87.238,88.166 87.238,78.627 111.762,78.376 114.5,75.615 114.5,51.517 110.02,47.5 "/>
<path fill="#1164B4" d="M35.626,52.846v19.199c0,4.225,3.457,7.68,7.681,7.68h26.303l17.857,11.137V79.725h20.732
	c4.225,0,7.682-3.455,7.682-7.68V52.846c0-4.225-3.457-7.68-7.682-7.68H43.307C39.083,45.166,35.626,48.621,35.626,52.846z
	 M39.467,52.846c0-2.111,1.728-3.84,3.84-3.84h64.893c2.113,0,3.84,1.729,3.84,3.84v19.199c0,2.113-1.727,3.84-3.84,3.84H83.625
	v8.064l-12.863-8.064H43.307c-2.112,0-3.84-1.727-3.84-3.84V52.846z"/>
<rect x="43.041" y="56.25" fill="none" width="70" height="11.5"/>
<text transform="matrix(1 0 0 1 43.041 67.5)" fill="#1164B4" font-family="'Graphik-Black'" font-size="15">REASON</text>
<path fill="#3E606F" d="M60,138.88H21.96c-4.225,0-7.68,3.456-7.68,7.681v19.199c0,4.225,3.455,7.68,7.68,7.68h1.92v11.137
	l17.856-11.137H60c4.223,0,7.68-3.455,7.68-7.68v-19.199C67.68,142.336,64.223,138.88,60,138.88z M63.84,165.76
	c0,2.112-1.729,3.84-3.84,3.84H40.584l-12.863,8.064V169.6H21.96c-2.111,0-3.84-1.728-3.84-3.84v-19.199
	c0-2.112,1.729-3.84,3.84-3.84H60c2.111,0,3.84,1.728,3.84,3.84V165.76z"/>
<rect x="59.242" y="156.1" fill="#00A388" width="27.926" height="3.101"/>
<rect x="14.5" y="145.25" fill="none" width="53.097" height="11.5"/>
<text transform="matrix(1 0 0 1 22.2896 155)" fill="#3E606F" font-family="'Graphik-Black'" font-size="13">RANT</text>
<rect x="34.745" y="169" fill="#00A388" width="2.5" height="16.875"/>
<polygon fill="#00A388" points="45.175,159.5 39.479,163.266 39.479,182.846 39.479,188.368 42.327,190.376 51.396,190.376 
	72.055,191.882 87.238,200.166 87.238,190.627 111.762,190.376 114.5,187.615 114.5,163.517 110.02,159.5 "/>
<path fill="#FFFFFF" d="M35.626,164.846v19.199c0,4.225,3.457,7.68,7.681,7.68h26.303l17.857,11.137v-11.137h20.732
	c4.225,0,7.682-3.455,7.682-7.68v-19.199c0-4.225-3.457-7.68-7.682-7.68H43.307C39.083,157.166,35.626,160.621,35.626,164.846z
	 M39.467,164.846c0-2.111,1.728-3.84,3.84-3.84h64.893c2.113,0,3.84,1.729,3.84,3.84v19.199c0,2.113-1.727,3.84-3.84,3.84H83.625
	v8.064l-12.863-8.064H43.307c-2.112,0-3.84-1.727-3.84-3.84V164.846z"/>
<rect x="35.995" y="168.25" fill="none" width="79.921" height="11.5"/>
<text transform="matrix(1 0 0 1 43.3311 179.5)" fill="#FFFFFF" font-family="'Graphik-Black'" font-size="15">REASON</text>
<path fill="#E7382D" d="M227.667,26.88h-38.04c-4.225,0-7.68,3.456-7.68,7.68v19.2c0,4.224,3.455,7.68,7.68,7.68h1.92v11.137
	l17.856-11.137h18.264c4.223,0,7.68-3.456,7.68-7.68v-19.2C235.347,30.336,231.89,26.88,227.667,26.88z M231.507,53.76
	c0,2.112-1.729,3.84-3.84,3.84h-19.416l-12.863,8.064V57.6h-5.761c-2.111,0-3.84-1.728-3.84-3.84v-19.2
	c0-2.112,1.729-3.84,3.84-3.84h38.04c2.111,0,3.84,1.728,3.84,3.84V53.76z"/>
<rect x="189.167" y="33.25" fill="none" width="44.75" height="11.5"/>
<text transform="matrix(1 0 0 1 189.167 43)" fill="#FFFFFF" font-family="'Graphik-Black'" font-size="13">RANT</text>
<rect x="190.167" y="45.75" fill="none" width="11.75" height="11.5"/>
<text transform="matrix(1 0 0 1 190.167 51.7495)" fill="#FFFFFF" font-family="'Graphik-Black'" font-size="8">TO</text>
<polygon fill="#1164B4" points="212.091,47.5 206.334,51.265 206.334,70.846 206.334,76.368 209.213,78.376 218.38,78.376 
	239.262,79.882 254.61,88.166 254.61,78.627 279.399,78.376 282.167,75.615 282.167,51.517 277.638,47.5 "/>
<path fill="#1164B4" d="M203.293,52.846v19.199c0,4.225,3.457,7.68,7.681,7.68h26.303l17.857,11.137V79.725h20.732
	c4.225,0,7.682-3.455,7.682-7.68V52.846c0-4.225-3.457-7.68-7.682-7.68h-64.893C206.75,45.167,203.293,48.622,203.293,52.846z
	 M207.134,52.846c0-2.111,1.728-3.84,3.84-3.84h64.893c2.113,0,3.84,1.729,3.84,3.84v19.199c0,2.113-1.727,3.84-3.84,3.84h-24.574
	v8.064l-12.863-8.064h-27.455c-2.112,0-3.84-1.727-3.84-3.84V52.846z"/>
<rect x="210.708" y="56.25" fill="none" width="70" height="11.5"/>
<text transform="matrix(1 0 0 1 210.708 67.5)" fill="#FFFFFF" font-family="'Graphik-Black'" font-size="15">REASON</text>
<rect x="68.75" y="148.791" fill="#3E606F" width="11.916" height="7.309"/>
<rect x="70.74" y="150.5" fill="none" width="11.75" height="11.5"/>
<text transform="matrix(1 0 0 1 70.7402 155)" fill="#FFFFFF" font-family="'Graphik-Black'" font-size="6">TO</text>
</svg>
